<svg width="106" height="86" viewBox="0 0 106 86" fill="none" xmlns="http://www.w3.org/2000/svg">
<path d="M73.4292 0.0403111C73.3132 0.0537486 72.9403 0.10078 72.6005 0.141092C70.6197 0.362811 68.3157 1.12875 66.1692 2.27094C64.0724 3.39297 62.4977 4.45453 59.3815 6.85312C56.9864 8.69406 56.0084 9.39281 54.8896 10.0714C50.5883 12.6648 44.4719 14.4923 34.6427 16.125L33.3498 16.34L32.6122 15.9503C28.0291 13.5517 23.2388 11.7847 17.9678 10.5484C16.3517 10.1655 14.0145 9.72875 12.7631 9.5675C11.7271 9.43984 9.63034 9.41969 8.86787 9.5339C5.58593 10.0244 3.81236 11.8452 3.39797 15.1508C3.25708 16.2123 3.33167 18.4362 3.56373 20.2234C4.34277 26.3845 5.97546 31.8603 8.74355 37.6586C9.82096 39.9161 10.0282 40.5342 10.0282 41.4748C10.0199 42.3684 9.63863 43.0739 8.6441 44.0145C8.42862 44.2228 7.67444 44.8812 6.98656 45.4792C6.29039 46.0772 5.38703 46.9305 4.98093 47.3672C2.27084 50.2831 0.712752 53.797 0.149187 58.2516C0.00829525 59.3534 0.00829525 63.042 0.149187 64.2648C0.488983 67.2614 0.994534 69.6869 2.03879 73.4023C2.66037 75.5859 2.71838 75.8412 2.86756 76.6945C3.01674 77.568 3.24879 78.0181 3.72119 78.3809C3.99469 78.5959 4.87319 78.9789 4.94778 78.9184C4.96435 78.9117 4.82346 78.5422 4.64113 78.0987C1.8979 71.5077 0.770766 63.3645 1.78187 57.4789C2.30399 54.4622 3.27366 52.1442 4.7986 50.3167C5.49477 49.4769 6.0832 48.9327 6.86224 48.4153C10.3182 46.1309 14.8019 46.0503 20.0563 48.1802C26.1146 50.6392 30.2419 54.4084 31.369 58.5203C31.5845 59.3131 31.626 61.0398 31.4519 61.8864C30.7806 65.1383 28.1037 67.5772 24.2996 68.4103C23.2968 68.632 21.2083 68.6589 19.99 68.4708C16.1942 67.8795 12.8791 65.7228 11.1387 62.7128C10.9315 62.3433 10.6249 61.8327 10.4757 61.5639C9.94527 60.6569 9.06678 60.2605 8.61924 60.7241C8.20485 61.1406 8.58609 62.5516 9.49774 63.9625C10.1856 65.0375 10.9398 65.8437 12.183 66.8583C14.0726 68.3969 15.9704 69.2703 18.4402 69.7272C19.5839 69.9422 20.5867 70.0094 23.7858 70.0766C26.8854 70.1437 27.5898 70.2042 28.7833 70.5133C29.7364 70.7619 30.59 71.0978 31.4851 71.5816C32.5873 72.1795 33.3249 72.6902 35.43 74.3094C37.5102 75.9084 38.2727 76.4392 39.317 77.0103C40.2949 77.5411 41.132 77.877 42.1928 78.1592C42.9718 78.3742 43.7509 78.5086 47.24 79.0461C50.5883 79.5702 52.4281 80.363 53.663 81.8277L54.0442 82.2845L53.8371 82.8825C53.2818 84.5017 53.0331 85.4558 53.116 85.5902C53.2155 85.738 54.0028 86 54.3675 86C54.8482 86 54.9145 85.8858 55.4449 84.1658C56.1576 81.8142 56.4228 81.2297 57.1521 80.3495C58.0638 79.2477 58.8926 78.4212 60.0363 77.4941C63.3016 74.8603 67.346 73.1537 71.3324 72.7305C76.3962 72.193 81.0705 74.0809 83.6148 77.7023C84.7088 79.2611 85.2392 80.9408 85.1812 82.6944L85.1564 83.5812L85.405 83.6619C86.2006 83.9306 87.2366 83.4805 87.5681 82.728C87.7173 82.3786 87.709 81.3237 87.5515 80.5914C87.162 78.7639 85.7033 76.3048 83.9795 74.5781C83.4739 74.0742 82.1479 72.9992 81.3274 72.4281L80.8882 72.1258L82.8441 69.3375C88.7035 60.9727 89.2173 60.2873 90.0047 59.7095C90.7837 59.1384 91.8197 58.9772 92.7976 59.2728C93.4441 59.4609 94.3309 60.1866 94.7121 60.8114C95.5077 62.135 95.3917 63.2637 94.19 65.9647C93.2286 68.1483 93.0214 69.0553 93.096 70.8022C93.1623 72.5289 93.6015 73.9667 94.5629 75.5792C95.7978 77.6419 97.5382 79.288 99.7676 80.4973C100.787 81.055 101.715 81.4178 102.909 81.7403C104.4 82.1502 105.163 82.0628 105.71 81.438L105.959 81.1491L105.942 79.5634C105.909 75.1358 104.55 70.5066 102.03 66.2805C101.177 64.8494 100.455 63.8281 99.3284 62.4508C98.1847 61.06 97.3144 60.153 95.5492 58.5203C93.9331 57.022 93.27 56.283 92.7313 55.3961C92.1843 54.4823 91.9937 53.8037 91.9937 52.7422C91.9937 51.6672 92.1263 51.0423 92.7728 48.9595C93.6347 46.225 93.9413 44.7066 94.0574 42.6506C94.2397 39.2845 93.643 36.2006 92.0766 32.5053C91.8031 31.8536 91.0158 30.1806 90.3279 28.7764C87.3112 22.6422 86.9216 21.3052 86.5653 15.7891C86.3664 12.6178 86.2089 11.1934 85.9354 9.87656C85.2807 6.71203 83.8552 4.21937 81.7252 2.47922C80.192 1.23625 78.6008 0.517342 76.562 0.161249C75.9818 0.0604673 73.8602 -0.0201577 73.4292 0.0403111ZM75.9984 2.6539C79.4627 3.68859 82.3302 7.24953 83.532 11.9997C84.427 15.5472 84.2364 18.9737 82.9601 21.9972C82.6866 22.6623 82.6452 23.0453 82.8358 23.3409C82.9021 23.4417 83.3082 23.912 83.7392 24.3823C88.4134 29.502 89.8886 32.465 90.7837 38.5656C91.2893 41.9989 91.2313 45.0156 90.5765 48.8453C90.2036 51.0289 89.4577 53.5753 88.9604 54.3614C88.9024 54.4622 88.546 55.2617 88.1731 56.1419C87.8084 57.022 87.3194 58.0769 87.0957 58.4867C85.4879 61.3959 82.9518 63.8416 79.2886 65.9983C77.3493 67.1472 75.584 67.9534 71.9706 69.3442C63.2768 72.6902 59.7048 73.7047 55.4117 74.0473C53.9614 74.1616 50.7374 74.0877 49.312 73.913C46.2455 73.5233 42.7481 72.6969 38.9937 71.4741C35.198 70.2378 31.2944 68.6589 30.9464 68.2289C30.7475 67.9803 30.8552 67.7787 31.4022 67.3958C31.6757 67.2009 32.0901 66.8314 32.3304 66.5627C32.5708 66.2939 32.9354 65.8975 33.1343 65.6758C33.5819 65.192 34.0045 64.4798 34.1869 63.9289C34.3775 63.3645 34.4355 61.9737 34.3195 61.1675C34.1703 60.2202 33.8719 59.1183 33.3581 57.6334C32.347 54.6839 31.5514 53.2797 30.159 51.9359C29.9104 51.6941 29.5209 51.3044 29.2971 51.0625C29.065 50.8206 28.6507 50.4175 28.3689 50.1689C27.5733 49.4634 27.5733 49.3223 28.3772 48.5698C28.6672 48.2944 29.2059 47.7905 29.5789 47.4411C31.3939 45.7345 32.8028 43.9877 35.1731 40.4939C37.4688 37.1211 38.2893 34.6486 38.8611 29.3945C39.1926 26.4114 39.1678 25.155 38.7534 23.8247C38.3887 22.6691 37.4025 20.8819 36.7478 20.1831C36.3417 19.7531 36.2174 19.5247 36.2174 19.182C36.2174 18.9066 36.2588 18.8394 36.5903 18.5505C37.3776 17.8652 38.8777 17.4217 43.3448 16.5416C46.4941 15.9167 50.7872 15.3523 53.0829 15.2583C53.9282 15.2247 54.326 15.1777 54.5498 15.0903C55.1134 14.8686 56.1079 13.9347 57.2267 12.5775C57.8152 11.8653 58.5942 10.9852 58.9589 10.6291C59.8208 9.78922 62.1165 7.89453 63.169 7.13531C66.1526 5.01219 70.4705 2.96297 72.9071 2.52625C73.8105 2.35828 75.2194 2.41875 75.9984 2.6539ZM12.8626 16.6289C13.9234 16.7767 15.0174 17.0925 16.1611 17.583C19.7994 19.135 21.4155 20.6333 21.8796 22.9109C22.1448 24.1741 21.631 25.4977 20.3547 26.875C19.3353 27.9769 16.8572 29.7372 15.6638 30.2142C14.23 30.7853 13.1526 30.2814 11.752 28.38C10.542 26.7339 9.63863 25.1281 9.08335 23.6298C8.71869 22.6556 8.07225 20.3242 7.95622 19.5919C7.71588 18.0264 8.61924 16.8641 10.2768 16.602C10.8735 16.508 12.1001 16.5214 12.8626 16.6289Z" fill="black"/>
<path d="M73.3547 6.5239C72.7662 6.60452 71.5645 6.93374 70.9678 7.18233C68.8213 8.06249 66.5339 9.80937 64.6194 12.0467C63.484 13.3636 63.0696 14.1161 63.0696 14.8619C63.0696 15.7487 63.6414 16.2459 65.3487 16.8305C65.7631 16.9716 67.4372 17.63 69.0699 18.2951C70.7109 18.9536 72.2773 19.5717 72.5508 19.6523C74.0177 20.0958 75.3852 20.1361 76.3714 19.7666C78.203 19.0678 79.1561 16.985 79.0401 13.9078C78.9903 12.6312 78.866 11.9325 78.3273 9.97733C77.9627 8.66046 77.8715 8.39843 77.5317 7.86765C76.8272 6.7389 75.3354 6.26187 73.3547 6.5239ZM73.8851 8.82171C74.4155 9.27187 74.7222 10.0445 75.3686 12.4969C75.7581 13.9951 75.9239 15.1373 75.9405 16.4341C75.957 17.415 75.9405 17.5359 75.7996 17.6636C75.4929 17.9391 74.8548 17.8248 73.0232 17.1933C71.2827 16.5886 69.8572 15.8966 68.2494 14.882C66.8985 14.0287 66.6416 13.6189 67.0726 12.9739C67.3792 12.5036 69.1942 10.6223 69.9733 9.9639C71.117 9.00312 72.1281 8.53952 73.0895 8.5328C73.5121 8.5328 73.5619 8.55296 73.8851 8.82171Z" fill="black"/>
<path d="M73.7276 38.4649C73.4541 38.5522 72.8159 38.8546 72.3187 39.1233C71.8131 39.3988 71.0755 39.7952 70.686 40.0035C69.8738 40.4267 69.1528 41.0247 68.8627 41.5017C68.5726 41.9855 68.5478 42.6708 68.8047 43.0605C69.103 43.5174 69.5257 43.7525 70.0727 43.7928C70.5119 43.8197 70.5451 43.813 70.8103 43.5778C71.0009 43.4166 71.2081 43.0941 71.4402 42.617C72.012 41.4077 72.4264 41.0046 73.595 40.5611C74.5315 40.1983 75.0619 40.2789 76.0316 40.9306C76.2968 41.1121 76.6366 41.3069 76.7775 41.3741C77.1255 41.5219 77.946 41.5219 78.3024 41.3674C78.8743 41.1188 79.0649 40.5006 78.7417 39.9833C78.493 39.5936 77.7223 39.0628 76.9598 38.7672C75.6669 38.2633 74.6227 38.1625 73.7276 38.4649Z" fill="black"/>
<path d="M82.9187 44.9148C81.8164 45.0694 79.1477 45.7815 78.2195 46.1645C77.83 46.3258 77.5731 46.5945 77.5731 46.8431C77.5731 47.1052 77.8383 47.515 78.1532 47.73C78.5759 48.0122 78.9737 47.9719 80.0843 47.5352C80.8965 47.2127 81.1285 47.1522 81.9242 47.0581C82.6369 46.9775 82.9684 46.8969 83.4491 46.7087C84.1536 46.4198 84.2116 46.3392 84.2364 45.6405C84.2447 45.2373 84.2199 45.1365 84.079 45.029C83.8469 44.8409 83.5817 44.8208 82.9187 44.9148Z" fill="black"/>
<path d="M41.1071 46.6013C40.9911 46.6148 40.6761 46.6618 40.4026 46.7021C39.2175 46.8701 38.0075 47.5822 37.1787 48.5968C35.9687 50.0883 35.8776 50.6728 36.7975 51.1767C37.1621 51.385 37.676 51.3783 38.0489 51.1767C38.223 51.0827 38.455 50.8408 38.6622 50.525C39.0932 49.8733 40.2037 48.9394 40.8668 48.6841C41.8198 48.3146 42.6569 48.328 44.0078 48.7446C44.9112 49.02 45.3338 49.0402 45.8394 48.8252C46.5355 48.5229 46.5853 48.0929 45.9886 47.5419C45.483 47.0716 45.052 46.9305 43.5934 46.7357C42.8227 46.6282 41.4303 46.5543 41.1071 46.6013Z" fill="black"/>
<path d="M83.2501 48.9596C80.4986 49.5642 80.4654 49.5777 80.1753 49.8195C79.8935 50.0681 79.7692 50.4041 79.8935 50.5922C79.935 50.6594 80.0925 50.7467 80.2334 50.787C80.7141 50.9214 81.1782 50.8744 82.1064 50.5855C82.9269 50.3302 83.0761 50.31 83.9546 50.2831C85.1646 50.2495 85.9769 50.142 86.1343 50.0009C86.4658 49.6986 86.3995 49.1611 85.9851 48.8118C85.7448 48.6035 85.6702 48.5766 85.3138 48.5833C85.0901 48.59 84.1618 48.758 83.2501 48.9596Z" fill="black"/>
<path d="M60.1937 49.2149C58.0306 49.5307 56.1078 50.5251 55.0304 51.8755C54.5083 52.534 54.3923 53.1252 54.6906 53.6493C55.0387 54.254 55.7846 54.6033 57.3261 54.8654C59.5389 55.2416 59.945 55.3626 60.0777 55.6515C60.2351 55.9807 60.5915 58.265 60.5915 58.9436C60.5915 59.5886 60.5583 59.7297 60.2848 60.4016C59.8042 61.5841 59.2655 62.135 58.2461 62.518C56.6465 63.1093 54.6575 62.7061 52.9751 61.4497C52.5524 61.1407 52.08 60.845 51.9225 60.8047C51.4833 60.6838 51.1103 60.8585 50.8368 61.3154C50.6462 61.6379 50.6214 61.7386 50.6545 62.1485C50.7208 62.9077 51.2512 63.4653 52.3369 63.9088C53.6464 64.453 55.047 64.668 56.8454 64.6143C59.2157 64.5471 60.4174 64.0566 61.1799 62.8674C61.8181 61.873 62.4977 61.2818 63.1855 61.1339C63.4839 61.0668 63.5916 61.0735 64.064 61.2146C64.553 61.3624 64.7602 61.3758 66.2189 61.396C67.1056 61.4094 68.3156 61.3893 68.9041 61.3489C70.197 61.2616 70.5948 61.1339 71.349 60.5629C71.639 60.3479 72.2357 59.9246 72.6667 59.629C73.7192 58.9168 73.8104 58.769 74.0259 57.405C74.1253 56.7869 74.1668 56.2293 74.1336 56.0546C74.0673 55.6851 73.711 55.3424 73.28 55.2416C72.8407 55.1341 71.9954 55.1408 71.6639 55.2551C71.15 55.4297 71.0837 55.5574 71.0174 56.4577C70.9429 57.3715 70.7108 58.218 70.4373 58.5338C70.1887 58.816 69.6002 59.1049 68.9124 59.2796C68.1748 59.4677 66.7078 59.4811 65.8873 59.3065C64.6359 59.0377 63.6414 58.4465 63.3679 57.8149C63.3016 57.6402 63.2021 57.19 63.1441 56.8138C62.9701 55.544 63.227 54.684 64.2132 53.226C65.1746 51.8218 65.3321 51.5127 65.3735 50.9349C65.3984 50.4579 65.3901 50.4041 65.158 50.1085C64.6773 49.5038 63.285 49.1141 61.6606 49.1209C61.1799 49.1209 60.5252 49.1679 60.1937 49.2149Z" fill="black"/>
<path d="M81.4517 54.1597C81.0871 54.2471 80.7224 54.5629 80.7224 54.798C80.7224 55.0668 80.9296 55.3893 81.228 55.5909C81.4932 55.7723 81.5263 55.779 82.0484 55.7253C83.2253 55.6043 83.5402 55.6446 84.3856 55.9873C85.2309 56.33 85.5459 56.3703 85.9851 56.1956C86.3415 56.0612 87.104 55.4095 87.104 55.2415C87.104 54.8652 86.2835 54.4957 84.974 54.2806C84.0209 54.1261 81.9158 54.0522 81.4517 54.1597Z" fill="black"/>
<path d="M40.2369 55.0333C38.8197 55.4297 37.0544 56.2964 36.2754 56.975C35.8113 57.3781 35.5626 57.8014 35.6621 58.0097C35.7533 58.2045 36.1345 58.2717 36.6069 58.1978C37.1705 58.1038 40.7922 56.8809 41.2977 56.6122C41.8613 56.3098 41.9276 55.4834 41.4221 55.04C41.1983 54.8518 40.8916 54.8518 40.2369 55.0333Z" fill="black"/>
<path d="M40.0297 59.3063C39.9137 59.3198 39.5324 59.4071 39.1844 59.5012C37.5683 59.9312 36.3665 61.0129 36.6317 61.8058C36.7478 62.1551 37.1456 62.5314 37.4688 62.5851C37.8252 62.6523 38.5048 62.3634 39.002 61.9401C39.2258 61.752 39.4827 61.5639 39.5739 61.5236C39.6733 61.4833 40.1623 61.4497 40.7342 61.4429C41.5961 61.4429 41.7784 61.4161 42.0768 61.2884C42.6569 61.0398 42.8061 60.6636 42.5243 60.1664C42.1431 59.481 41.1817 59.1518 40.0297 59.3063Z" fill="black"/>
<path d="M41.0657 63.6198C40.6844 63.7609 40.1872 64.1372 39.1844 65.0644C38.2147 65.9445 38.0904 66.3476 38.6374 66.7844C39.375 67.3823 40.8005 67.0598 41.5712 66.1125C41.8613 65.7631 42.0768 65.6623 42.7647 65.5414C43.9167 65.3466 44.2565 65.1248 44.2565 64.5605C44.2565 64.1775 44.1073 64.023 43.552 63.8281C43.1625 63.6937 41.9939 63.4922 41.6127 63.4922C41.4966 63.4922 41.248 63.5526 41.0657 63.6198Z" fill="black"/>
<path d="M24.888 55.9336C24.6063 56.0344 24.5814 56.0881 24.6145 56.5719C24.656 57.2035 25.203 57.9963 26.1063 58.7219C26.8191 59.3064 27.3743 59.5617 27.7722 59.4945C28.1202 59.4341 28.5595 59.0981 28.6755 58.8227C28.7998 58.5136 28.7004 58.265 28.1865 57.6335C27.3992 56.6592 26.6782 56.1553 25.7831 55.9403C25.2444 55.8127 25.2278 55.8127 24.888 55.9336Z" fill="black"/>
<path d="M19.4015 57.8215C19.2938 57.882 19.1612 58.0365 19.0949 58.1575C18.8877 58.5606 18.9374 58.6815 19.4844 59.0712C20.0645 59.4744 20.3049 59.7834 20.5867 60.4486C20.9596 61.3287 21.258 61.5169 22.1448 61.4362C22.8327 61.3758 22.9901 61.2414 22.9321 60.7778C22.8492 60.1462 22.4929 59.5079 21.9542 59.0309C21.142 58.312 20.1143 57.714 19.7082 57.714C19.6419 57.714 19.5093 57.7611 19.4015 57.8215Z" fill="black"/>
<path d="M13.9565 59.9649C13.741 60.2337 13.8405 60.6637 14.2383 61.1541C14.7024 61.7386 14.9593 62.2089 15.1997 62.948C15.3157 63.2974 15.4732 63.6333 15.5395 63.687C15.6224 63.7542 15.813 63.7945 16.045 63.7945C16.3765 63.7945 16.4594 63.7609 16.6998 63.5527C17.3877 62.9413 17.0147 61.6043 15.871 60.6099C14.9759 59.8373 14.2549 59.5954 13.9565 59.9649Z" fill="black"/>
</svg>
